# xmcd
#
# Track frame offsets: 
#        150
#        10382
#        26755
#        40803
#        62304
#        77767
#        98079
#        110753
#        125812
#        137575
#        153491
#        168840
#
# Disc length: 2564 seconds
#
# Revision: 35
# Processed by: cddbd v1.5.2PL0 Copyright (c) Steve Scherf et al.
# Submitted via: ExactAudioCopy v1.3
#
DISCID=960a020c
DTITLE=Rolling Stones The - Blue and Lonesome
DYEAR=2016
DGENRE=Blues
TTITLE0=Just Your Fool
TTITLE1=Commit a Crime
TTITLE2=Blue and Lonesome
TTITLE3=All of Your Love
TTITLE4=I Gotta Go
TTITLE5=Everybody Knows About My Good Thing
TTITLE6=Ride 'em on Down
TTITLE7=Hate to See You Go
TTITLE8=Hoo Doo Blues
TTITLE9=Little Rain
TTITLE10=Just Like I Treat You
TTITLE11=I Can't Quit You Baby
EXTD=YEAR: 2016
EXTT0=
EXTT1=
EXTT2=
EXTT3=
EXTT4=
EXTT5=
EXTT6=
EXTT7=
EXTT8=
EXTT9=
EXTT10=
EXTT11=
PLAYORDER=
